<?xml version="1.0" encoding="UTF-8"?>
<svg viewBox="0 0 317.65808 123.4799" xmlns="http://www.w3.org/2000/svg">
 <g transform="matrix(1.25 0 0 -1.25 -10.688 796.34)">
  <path d="m132.9 624.19-0.35485-2.2008-89.664-81.464-4.8084-2.2381c-5.3812 5.946-10.704 11.861-16.084 17.809 1.1948 2.1782 1.7064 4.9107 3.1484 6.7088l34.506 26.679c0.17543 0.83196 1.1881 0.70438 1.644 1.216l32.656 25.509 27.162 20.638 1.6094 0.2246c3.3837-4.3126 7.085-8.3448 10.184-12.881" fill="#1f57af"/>
  <path d="m79.855 579.13-38.997-35.011-14.69 16.605 3.1378 2.4387 4.2834-5.6935c0.59938-0.0412 0.79873 0.6964 0.79475 1.0871-1.2971 1.7716-2.5583 3.5976-3.9817 5.2855 0.72431 0.97549 2.0414 1.7609 3.066 2.7152 3.4514-4.1983 6.4683-8.6067 10.306-12.408 0.6964 0.52629 1.3596 0.99277 1.9151 1.6772-3.5617 3.8727-5.7347 8.798-9.4891 12.474 0.45054 0.90372 1.8221 1.6533 2.7803 2.4932 1.4792-1.7224 2.5823-3.688 4.4734-5.106 0.58476 0.20068 1.2812 0.72563 0.57147 1.3755-1.317 1.4686-2.2208 3.2428-3.5378 4.714 1.2293 1.3011 3.0315 2.658 4.5412 3.6388 1.6732-1.523 2.7178-3.4554 4.391-4.9798 0.25118 0.16081 0.5954 0.34952 0.7057 0.6738-0.85987 1.9816-2.3497 3.5524-3.5896 5.2895 0.81468 1.3901 2.7378 2.2846 4.0482 3.4621 1.4553-1.6307 3.0381-3.179 4.2422-4.9732 0.36814 0.097 0.71102 0.2844 0.91569 0.6326l-3.6495 5.3227c0.64856 0.70836 1.8566 1.7118 2.9198 2.3324 3.3863-3.3797 5.5619-7.7654 8.9482-11.145 0.64723 0.70836 1.8261 1.2626 2.6102 2.2035-2.5304 4.0455-6.156 7.4132-8.7289 11.25l2.7271 2.1357 4.217-4.8788 0.71235 0.28308c-0.87316 1.8327-2.2925 3.5205-3.6588 5.1738 0.87316 1.3556 2.553 2.2367 3.8302 3.3558 1.3024-1.2293 2.577-3.2973 3.8276-4.8841 0.49572-0.21131 0.65121 0.31763 0.93562 0.53958-0.82664 2.04-2.7949 3.1923-3.7132 5.2071l4.1199 3.187c1.5895-1.3994 2.678-3.1245 3.9272-4.7113 0.56483-0.0957 0.66317 0.46781 1.0047 0.65653l-3.8847 4.9173c1.2958 0.48509 2.7723 3.2747 3.8847 1.4579l7.0477-8.9456c1.0512 0.86253 3.5484 1.8114 1.4592 3.4235-2.3191 2.678-4.0096 5.7666-6.5786 8.281 1.1934 1.244 2.6341 2.1118 3.9339 3.1378 1.3503-1.4114 2.1304-3.2667 3.7079-4.4243 0.59938-0.0385 0.66185 0.46648 1.0393 0.71235l-3.6973 4.5744 3.3558 2.545c1.4513-1.2386 2.4587-2.8374 3.591-4.3552l1.1549 0.64457c-1.2572 1.4353-2.4254 2.8972-3.591 4.3565 0.70172 1.0672 2.1889 1.7516 3.2494 2.763 1.321-0.93031 2.561-2.6647 3.5431-4.1731l0.98613 0.35618c-0.6964 1.7304-2.165 3.2082-3.4794 4.6794 1.018 0.41332 1.8433 1.9523 2.7803 1.5602 2.3457-3.1617 4.8283-6.0922 7.1846-9.1037 0.82797 0.2153 1.5669 0.94892 2.1915 1.749-2.1875 3.3013-4.7047 6.1759-7.0517 9.335 0.78279 0.94227 1.959 1.8872 3.1484 2.5902 0.79873-1.5549 2.1344-2.7271 2.9344-4.2847l1.1536 0.6459c-0.52363 1.6294-1.9417 2.9252-2.9345 4.2834 0.75089 0.88246 2.0613 2.06 3.3092 2.7298 1.3104-1.0792 2.0174-2.6594 3.0115-4.0189l0.8107 0.45851c-0.39738 1.7104-1.8832 2.8906-2.8414 4.306l2.7936 2.2513c1.2984-0.83595 2.3072-2.4361 3.1737-3.878 0.36547 0.097 0.67646 0.22726 0.8798 0.57546-0.77481 1.4632-1.7357 2.88-2.7949 4.1239 1.0446 0.3203 1.8819 2.5504 2.9079 1.2493l5.7333-7.4743c0.93961 0.14884 1.8646 0.92897 2.4879 1.729l-5.8317 8.2345c0.88114 1.5058 2.8042 2.4015 4.1731 3.5418 0.9755-0.72431 1.8898-2.3484 2.7763-3.4873l0.81336 0.45585c0.37876 2.1091-5.2483 4.3153-0.62464 5.5739l8.4884-10.333-50.312-45.182" fill="#fff"/>
  <path d="m260.83 626.44v-38.176c-4.7645-0.46914-9.0585-2.1464-13.687-2.884-0.67115 0.26713-0.13423 1.4074-0.20201 1.7423l1.0074 0.67248c-1.4765 8.0511-2.4826 16.235-3.4222 24.488-0.40269-1.4088-1.7423-0.80405-2.549-0.46914l-5.5021 3.8236c1.9457 3.8249 4.2276 7.5142 6.3088 11.271 5.7679 1.4088 11.404 3.2215 17.712 3.3544l0.33491-3.8236" fill="#1f57af"/>
  <path d="m262.68 630.27v-38.174c-4.7645-0.47046-9.0585-2.1477-13.687-2.8853-0.67115 0.26846-0.1329 1.4101-0.20201 1.745l1.0074 0.66983c-1.4765 8.0511-2.4826 16.236-3.4222 24.49-0.40136-1.4088-1.7437-0.80538-2.5477-0.47047l-5.5034 3.8249c1.947 3.8249 4.2276 7.5142 6.3075 11.271 5.7706 1.4088 11.406 3.2202 17.712 3.3544l0.33624-3.8249" fill="#1f57af"/>
  <path d="m259.26 631.41c-0.74026-11.875-0.74026-25.428 0.66849-37.37-2.6168-0.26979-5.1659-0.73893-7.582-1.4765-1.5416 9.0585-1.4088 19.457-3.2202 28.716l-0.13423 0.13423-3.8913-4.1598-4.3605 2.8853c2.1477 2.6155 3.0873 5.7692 4.831 8.5203 4.8961 0.20068 9.0572 2.0799 13.689 2.751" fill="#8495d3"/>
  <path d="m47.462 619.84c2.8853-6.9108-1.8114-13.418-5.6337-18.988l-6.4417-6.6424 0.33491-0.26714c3.9578 1.6081 8.1854 2.5477 12.077 4.2927-2.3484-5.3679-4.9652-10.6-7.0451-16.102-8.2518-1.4752-16.17-4.2262-24.019-6.1055-0.47047-0.40269-1.745-1.1403-2.8853-1.1403-1.6094 5.1007-3.4209 10.063-5.2988 15.028 7.1115 3.9591 14.893 7.6484 20.596 14.76 0.47047 1.6785 2.4826 3.5578 0.80538 5.3679-2.6155 1.8792-5.5686-0.0665-8.0498-0.80538-3.6242-1.9457-7.1793-3.8249-10.467-6.4404-0.40269 0.40269-1.2758 0.46914-1.2758 1.0725 1.7463 5.4356 3.3558 10.87 4.831 16.44 7.0464 4.1598 15.432 5.5672 24.289 4.8296 3.1524-0.66982 6.5068-2.0812 8.184-5.3001" fill="#1f57af"/>
  <path d="m49.821 622.92c2.8853-6.9108-1.8114-13.419-5.635-18.988l-6.443-6.6424 0.33624-0.26846c3.9591 1.6108 8.1854 2.549 12.077 4.294-2.3484-5.3665-4.9638-10.6-7.0438-16.104-8.2532-1.4752-16.169-4.2249-24.019-6.1041-0.46914-0.40269-1.745-1.1403-2.8866-1.1403-1.6081 5.0994-3.4209 10.063-5.2988 15.03 7.1115 3.9565 14.896 7.6471 20.597 14.759 0.46914 1.6772 2.4813 3.5564 0.80405 5.3679-2.6155 1.8779-5.5672-0.0665-8.0511-0.80671-3.6216-1.9443-7.178-3.8222-10.466-6.4404-0.40136 0.40402-1.2745 0.47047-1.2745 1.0738 1.745 5.4343 3.3558 10.87 4.831 16.439 7.0451 4.1598 15.432 5.5686 24.288 4.8296 3.1551-0.66982 6.5082-2.0786 8.1854-5.2988" fill="#1f57af"/>
  <path d="m46.13 621.31c1.6772-3.49-0.19935-7.5155-1.4088-10.804-3.3544-6.2384-8.5867-12.277-14.492-16.908l-0.53692-3.0182c5.1659 0.33492 9.9304 2.4161 14.828 3.6893-0.33491-1.6759-1.2745-3.9578-2.0799-5.6363-7.9847-1.6094-15.766-3.6893-23.348-6.3048-0.66982 3.0846-1.1403 6.2384-2.0799 9.1928 7.7149 3.6202 16.908 9.3908 19.657 18.18 0 2.751-0.93828 5.7028-3.5538 6.7766-5.5699 2.8188-10.938-0.73893-15.5-3.2202 0.60337 2.4813 1.4765 4.831 1.8114 7.3787 6.3753 2.9544 13.487 5.1685 21.404 4.2276 1.8779-1.0047 4.2927-1.2081 5.2988-3.5538" fill="#8495d3"/>
  <path d="m199.6 632.33c12.425-9.1316 24.864-18.328 35.982-28.474l-35.578-38.221-0.16879 0.0904-0.89974-1.4539-17.515-18.61c-5.3825 5.8955-10.38 12.393-15.972 18.296-4.7472 5.1725-9.4306 10.365-13.876 15.698-1.4672 2.3643 1.6799 3.7837 2.5304 5.6456l38.816 50.93c2.4135-0.82532 4.5412-2.577 6.6809-3.902" fill="#1f57af"/>
  <path d="m195.55 630.15c9.3283-7.1766 19.822-13.8 28.858-21.414l0.30966-2.7059c-14.196-15.88-28.412-31.696-42.282-47.968-0.88113-0.33093-1.5589 0.30833-2.0905 0.921-7.9302 7.6604-16.476 14.789-24.69 22.226 0.12227 2.9052 2.8986 4.6342 4.2595 7.1354l5.3865 6.6291 24.046 29.424c1.7995 1.7197 3.171 3.9458 4.8496 5.8397l1.3543-0.0877" fill="#8495d3"/>
  <path d="m186 603.75c-0.85987-1.0167-2.8906-0.71367-4.5332 0.67913-1.6466 1.3941-2.2806 3.3491-1.4207 4.3684s2.8919 0.71368 4.5359-0.67912 2.2793-3.3478 1.4181-4.3685" fill="#1f57af"/>
  <path d="m194.29 596.73c-0.86252-1.0207-2.8906-0.71501-4.5372 0.67779s-2.2779 3.3478-1.418 4.3671 2.8906 0.71501 4.5346-0.67913 2.2792-3.3491 1.4207-4.3658" fill="#1f57af"/>
  <path d="m202.52 589.75c-0.85987-1.018-2.8893-0.71235-4.5346 0.68045-1.644 1.3928-2.2806 3.3464-1.418 4.3658s2.8879 0.71501 4.5359-0.67647c1.6413-1.3941 2.2779-3.3491 1.4167-4.3698" fill="#1f57af"/>
  <path d="m181.17 597.8c-0.85987-1.0194-2.8893-0.71634-4.5332 0.67779s-2.2806 3.3478-1.4194 4.3685 2.8919 0.71367 4.5372-0.68046c1.644-1.3941 2.2779-3.3478 1.4154-4.3658" fill="#1f57af"/>
  <path d="m189.46 590.78c-0.86252-1.0194-2.8906-0.71501-4.5359 0.67779s-2.2792 3.3491-1.4194 4.3671 2.8906 0.715 4.5332-0.67913 2.2806-3.3478 1.422-4.3658" fill="#1f57af"/>
  <path d="m197.69 583.8c-0.85987-1.0154-2.8893-0.71235-4.5346 0.68178s-2.2792 3.3464-1.4207 4.3671 2.8919 0.71367 4.5359-0.67913c1.6453-1.3941 2.2819-3.3491 1.4194-4.3698" fill="#1f57af"/>
  <path d="m176.2 592.13c-0.85986-1.018-2.8893-0.71368-4.5319 0.68045-1.6466 1.3915-2.2819 3.3478-1.4207 4.3658s2.8893 0.71368 4.5346-0.67912c1.644-1.3941 2.2792-3.3478 1.418-4.3671" fill="#1f57af"/>
  <path d="m184.49 585.11c-0.86253-1.0194-2.8919-0.71368-4.5372 0.6778-1.644 1.3941-2.2766 3.3504-1.418 4.3671s2.8919 0.71634 4.5346-0.67912c1.6453-1.3941 2.2792-3.3478 1.4207-4.3658" fill="#1f57af"/>
  <path d="m192.72 578.13c-0.85854-1.0207-2.8879-0.715-4.5332 0.67913-1.644 1.3928-2.2792 3.3464-1.4181 4.3671s2.8893 0.71368 4.5346-0.67912c1.644-1.3941 2.2806-3.3491 1.4167-4.3671" fill="#1f57af"/>
  <path d="m171.32 586.15c-0.8612-1.0207-2.8919-0.71501-4.5346 0.67647-1.6453 1.3954-2.2819 3.3491-1.4194 4.3684s2.8906 0.71368 4.5332-0.6778c1.6453-1.3955 2.2806-3.3504 1.4207-4.3671" fill="#1f57af"/>
  <path d="m179.61 579.12c-0.85987-1.0207-2.8893-0.71368-4.5346 0.67779s-2.2792 3.3504-1.4194 4.3671 2.8893 0.71367 4.5346-0.67913c1.644-1.3941 2.2806-3.3491 1.4194-4.3658" fill="#1f57af"/>
  <path d="m187.84 572.14c-0.85854-1.018-2.8893-0.71235-4.5346 0.68045-1.644 1.3928-2.2792 3.3478-1.418 4.3658s2.8879 0.71633 4.5359-0.67647c1.6426-1.3941 2.2779-3.3491 1.4167-4.3698" fill="#1f57af"/>
  <path d="m189.08 616.45 18.69-18.262 3.4076 0.307 6.9507 9.226-24.042 15.458-1.7038-0.15417-3.6255-5.1645 0.32295-1.4101" fill="#fff"/>
  <path d="m188.76 617.86c7.3255-6.0895 13.629-12.972 21.458-18.637 2.2341 2.6208 5.033 4.9864 6.2742 8.3634l-0.32029 1.7942c0.69374-0.2153 1.3011-1.0858 1.959-1.6599 2.0041-0.38807 0.78411-1.9364 0.40667-3.0288-1.8965-3.2893-4.6887-5.4436-6.968-8.1455-0.58742 0.80671-1.5549-0.18074-2.2859 0.16347l-1.959 0.46914c-6.0988 5.9646-12.833 11.46-18.776 17.609 0.11962 1.014-1.4141 3.3611 0.21132 3.0713" fill="#1f57af"/>
  <path d="m115.22 577.79 6.8311 11.342 10.978-6.4949-7.1806-11.497 9.3057-5.1353-4.6941-8.5096-9.1914 4.609-5.8224-8.3515-8.8007 5.3187 3.9937 7.9727-9.9344 5.6164 5.4795 9.2393 2.3125-1.7131-3.2308-6.0164 8.9947-4.9638-3.9923-7.9727 4.9625-2.7364 5.0383 6.9321 9.1795-4.904 2.9969 4.0375-9.949 5.9287 6.6929 10.369-6.6291 4.1213-6.3766-10.822-11.219 6.2238 1.1509 2.4308 9.105-5.0237" fill="#1f57af"/>
 </g>
</svg>
